<svg width="56" height="56" viewBox="0 0 56 56" fill="none" xmlns="http://www.w3.org/2000/svg">
<g clip-path="url(#clip0_1102_21540)">
<path d="M27.9995 24.7224C29.2741 24.7224 30.361 23.745 30.7647 22.7676H25.2354C25.6381 23.745 26.725 24.7224 27.9995 24.7224Z" fill="white"/>
<path d="M36.1924 26.6777H19.2027H8.45097H7.10016L3.19043 34.4972H32.2827L36.1924 26.6777Z" fill="#66CEDB"/>
<path d="M32.8869 36.4514H7.47363V50.8275C7.47363 52.4442 8.78926 54.0452 10.4059 54.0452H17.248V43.0081C17.248 42.6689 17.4239 42.3551 17.7113 42.1763C17.9996 41.9964 18.3593 41.9827 18.6623 42.1333L20.1802 42.8917L21.6972 42.1333C21.9719 41.9954 22.2954 41.9954 22.572 42.1333L24.09 42.8917L25.6079 42.1333C25.9109 41.9827 26.2706 41.9964 26.559 42.1763C26.8463 42.3551 27.0223 42.6689 27.0223 43.0081V54.0452H36.7966V29.5547L33.7607 35.7682C33.5955 36.0996 33.2583 36.4514 32.8869 36.4514Z" fill="#66CEDB"/>
<path d="M23.6534 44.8601L22.1354 44.1016L20.6184 44.8601C20.3438 44.9979 20.0193 44.9979 19.7436 44.8601L19.2031 44.5903V54.046H25.0677V44.5903L24.5272 44.8601C24.2535 44.9979 23.93 44.9979 23.6534 44.8601Z" fill="#EE8B26"/>
<path d="M41.7869 35.7682L38.752 29.5547V54.0452H45.594C47.2107 54.0452 48.5263 52.4442 48.5263 50.8275V36.4514H42.6617C42.2912 36.4514 41.954 36.0996 41.7869 35.7682Z" fill="#66CEDB"/>
<path d="M23.113 21.7902C23.113 21.2496 23.5508 20.8127 24.0904 20.8127H31.9098C32.4494 20.8127 32.8873 21.2496 32.8873 21.7902C32.8873 22.8947 32.5051 23.745 31.8844 24.7225H35.8196V16.6176C35.8196 14.9999 34.504 13.9707 32.8873 13.9707H23.113C21.4963 13.9707 20.1807 14.9999 20.1807 16.6176V24.7225H24.1158C23.4961 23.745 23.113 22.8947 23.113 21.7902ZM30.9324 16.6176C31.472 16.6176 31.9098 17.0555 31.9098 17.595C31.9098 18.1346 31.472 18.5725 30.9324 18.5725C30.3929 18.5725 29.955 18.1346 29.955 17.595C29.955 17.0545 30.3929 16.6176 30.9324 16.6176ZM25.0678 16.6176C25.6074 16.6176 26.0453 17.0555 26.0453 17.595C26.0453 18.1346 25.6074 18.5725 25.0678 18.5725C24.5283 18.5725 24.0904 18.1346 24.0904 17.595C24.0904 17.0545 24.5283 16.6176 25.0678 16.6176Z" fill="#F8CF26"/>
<path d="M47.5483 26.6777H39.3555L43.2652 34.4972H52.8088L48.8991 26.6777H47.5483Z" fill="#66CEDB"/>
<path d="M50.3786 25.1191C50.2134 24.7887 49.8752 24.7222 49.5048 24.7222H47.5499H37.7756V16.6174C37.7756 13.9226 35.5832 12.0156 32.8885 12.0156H23.1141C20.4194 12.0156 18.227 13.9226 18.227 16.6174V24.7222H8.45267H6.4978C6.12736 24.7222 5.78917 24.7887 5.623 25.1191L0.735843 34.822C0.584341 35.125 0.600958 35.5913 0.77885 35.8796C0.956743 36.1689 1.27148 36.4514 1.61064 36.4514H5.52037V50.8275C5.52037 53.5213 7.71275 56.0001 10.4075 56.0001H18.227H26.0464H37.7756H45.5951C48.2899 56.0001 50.4822 53.5213 50.4822 50.8275V36.4514H54.392C54.7311 36.4514 55.0449 36.1328 55.2238 35.8444C55.4016 35.5561 55.4183 35.1964 55.2668 34.8934L50.3786 25.1191ZM20.1809 16.6174C20.1809 14.9997 21.4965 13.9705 23.1132 13.9705H32.8875C34.5042 13.9705 35.8198 14.9997 35.8198 16.6174V24.7222H31.8846C32.5053 23.7448 32.8875 22.8944 32.8875 21.7899C32.8875 21.2494 32.4496 20.8125 31.9101 20.8125H24.0906C23.5511 20.8125 23.1132 21.2494 23.1132 21.7899C23.1132 22.8944 23.4953 23.7448 24.116 24.7222H20.1809V16.6174ZM25.2352 22.7674H30.7645C30.3608 23.7448 29.2739 24.7222 27.9993 24.7222C26.7258 24.7222 25.6388 23.7448 25.2352 22.7674ZM7.10088 26.6771H8.45169H19.2034H36.1932L32.2834 34.4966H3.19115L7.10088 26.6771ZM7.47426 50.8275V36.4514H32.8875C33.2579 36.4514 33.5961 36.0995 33.7613 35.7682L36.7972 29.5547V54.0452H27.0229V43.008C27.0229 42.6689 26.847 42.3551 26.5596 42.1762C26.2712 41.9964 25.9106 41.9827 25.6085 42.1332L24.0906 42.8917L22.5726 42.1332C22.297 41.9954 21.9735 41.9954 21.6978 42.1332L20.1809 42.8917L18.6629 42.1332C18.3599 41.9827 18.0002 41.9964 17.7119 42.1762C17.4245 42.3551 17.2486 42.6689 17.2486 43.008V54.0452H10.4066C8.78988 54.0452 7.47426 52.4442 7.47426 50.8275ZM19.2034 54.0452V44.5895L19.744 44.8593C20.0186 44.9971 20.3431 44.9971 20.6188 44.8593L22.1357 44.1008L23.6537 44.8593C23.9293 44.9971 24.2529 44.9971 24.5285 44.8593L25.068 44.5895V54.0452H19.2034ZM48.5264 50.8275C48.5264 52.4442 47.2108 54.0452 45.5941 54.0452H38.7521V29.5547L41.787 35.7682C41.9532 36.0995 42.2914 36.4514 42.6618 36.4514H48.5264V50.8275ZM43.2659 34.4966L39.3561 26.6771H47.549H48.8998L52.8095 34.4966H43.2659Z" fill="black"/>
<path d="M25.0673 18.5721C25.6071 18.5721 26.0447 18.1344 26.0447 17.5946C26.0447 17.0548 25.6071 16.6172 25.0673 16.6172C24.5275 16.6172 24.0898 17.0548 24.0898 17.5946C24.0898 18.1344 24.5275 18.5721 25.0673 18.5721Z" fill="black"/>
<path d="M30.9325 18.5721C31.4723 18.5721 31.9099 18.1344 31.9099 17.5946C31.9099 17.0548 31.4723 16.6172 30.9325 16.6172C30.3927 16.6172 29.9551 17.0548 29.9551 17.5946C29.9551 18.1344 30.3927 18.5721 30.9325 18.5721Z" fill="black"/>
<path d="M8.45129 22.7668H10.4062C10.4062 16.9022 6.02139 12.707 0.631836 12.707V14.6619C4.94329 14.6619 8.45129 17.8796 8.45129 22.7668Z" fill="black"/>
<path d="M12.3611 13.9696H14.316C14.316 6.15011 8.61561 0.976562 1.60938 0.976562V2.93143C7.5375 2.93143 12.3611 7.12754 12.3611 13.9696Z" fill="black"/>
<path d="M23.1125 10.0608H25.0674C25.0674 5.17365 21.1205 0.978516 16.2705 0.978516V2.93338C20.0444 2.9324 23.1125 6.15108 23.1125 10.0608Z" fill="black"/>
<path d="M45.5938 22.7668H47.5486C47.5486 17.8796 51.0566 14.6619 55.3681 14.6619V12.707C49.9785 12.707 45.5938 16.9022 45.5938 22.7668Z" fill="black"/>
<path d="M54.3902 2.93143V0.976562C47.383 0.976562 41.6836 6.15011 41.6836 13.9696H43.6385C43.6385 7.12754 48.4631 2.93143 54.3902 2.93143Z" fill="black"/>
<path d="M39.7295 2.93143V0.976562C34.8795 0.976562 30.9326 5.17268 30.9326 10.0598H32.8875C32.8875 6.15011 35.9566 2.93143 39.7295 2.93143Z" fill="black"/>
<path d="M14.3162 15.6406H12.3613V17.5955H14.3162V15.6406Z" fill="black"/>
<path d="M14.3162 19.5488H12.3613V21.5037H14.3162V19.5488Z" fill="black"/>
<path d="M43.6385 15.6406H41.6836V17.5955H43.6385V15.6406Z" fill="black"/>
<path d="M43.6385 19.5488H41.6836V21.5037H43.6385V19.5488Z" fill="black"/>
<path d="M14.3162 0.976562H12.3613V2.93143H14.3162V0.976562Z" fill="black"/>
<path d="M43.6385 0.976562H41.6836V2.93143H43.6385V0.976562Z" fill="black"/>
<path d="M28.9773 7.82031H27.0225V9.77518H28.9773V7.82031Z" fill="black"/>
<path d="M28.9773 3.91016H27.0225V5.86502H28.9773V3.91016Z" fill="black"/>
<path d="M28.9773 0H27.0225V1.95486H28.9773V0Z" fill="black"/>
<path d="M19.2029 7.82031H17.248V9.77518H19.2029V7.82031Z" fill="black"/>
<path d="M38.7517 7.82031H36.7969V9.77518H38.7517V7.82031Z" fill="black"/>
</g>
<defs>
<clipPath id="clip0_1102_21540">
<rect width="56" height="56" fill="white"/>
</clipPath>
</defs>
</svg>
